SplineFontDB: 3.2
FontName: ReadexPro-Regular
FullName: Readex Pro Regular
FamilyName: Readex Pro
Weight: Book
Copyright: Copyright 2019 The Readex Pro Project Authors (https://github.com/ThomasJockin/readexpro)
Version: 1.203
ItalicAngle: 0
UnderlinePosition: -175
UnderlineWidth: 50
Ascent: 800
Descent: 200
InvalidEm: 0
sfntRevision: 0x000133f8
LayerCount: 2
Layer: 0 1 "Back" 1
Layer: 1 1 "Fore" 0
XUID: [1021 776 -1568457482 2706689]
StyleMap: 0x0040
FSType: 0
OS2Version: 4
OS2_WeightWidthSlopeOnly: 0
OS2_UseTypoMetrics: 1
CreationTime: 1578154464
ModificationTime: 1686625907
PfmFamily: 81
TTFWeight: 400
TTFWidth: 5
LineGap: 0
VLineGap: 0
Panose: 0 0 0 0 0 0 0 0 0 0
OS2TypoAscent: 1000
OS2TypoAOffset: 0
OS2TypoDescent: -250
OS2TypoDOffset: 0
OS2TypoLinegap: 0
OS2WinAscent: 1200
OS2WinAOffset: 0
OS2WinDescent: 555
OS2WinDOffset: 0
HheadAscent: 1000
HheadAOffset: 0
HheadDescent: -250
HheadDOffset: 0
OS2SubXSize: 650
OS2SubYSize: 600
OS2SubXOff: 0
OS2SubYOff: 75
OS2SupXSize: 650
OS2SupYSize: 600
OS2SupXOff: 0
OS2SupYOff: 350
OS2StrikeYSize: 50
OS2StrikeYPos: 315
OS2CapHeight: 700
OS2XHeight: 525
OS2Vendor: 'NONE'
OS2CodePages: 200001d3.00080000
OS2UnicodeRanges: a00020ff.c000205b.00000000.00000000
Lookup: 1 0 0 "'aalt' Access All Alternates lookup 0" { "'aalt' Access All Alternates lookup 0 subtable"  } ['aalt' ('DFLT' <'dflt' > 'arab' <'dflt' > 'latn' <'AZE ' 'CAT ' 'CRT ' 'KAZ ' 'MOL ' 'NLD ' 'ROM ' 'TAT ' 'TRK ' 'dflt' > ) ]
Lookup: 3 0 0 "'aalt' Access All Alternates lookup 1" { "'aalt' Access All Alternates lookup 1 subtable"  } ['aalt' ('DFLT' <'dflt' > 'arab' <'dflt' > 'latn' <'AZE ' 'CAT ' 'CRT ' 'KAZ ' 'MOL ' 'NLD ' 'ROM ' 'TAT ' 'TRK ' 'dflt' > ) ]

StartChar: A
Encoding: 65 65 1
Width: 700
GlyphClass: 2
Flags: W
AnchorPoint: "Anchor-4" 675 0 basechar 0
AnchorPoint: "Anchor-1" 350 0 basechar 0
AnchorPoint: "Anchor-0" 350 700 basechar 0
LayerCount: 2
Fore
SplineSet
25 0 m 1,0,-1
 296 700 l 1,1,-1
 406 700 l 1,2,-1
 675 0 l 1,3,-1
 560 0 l 1,4,-1
 400 422 l 2,5,6
 397 429 397 429 388.5 456 c 128,-1,7
 380 483 380 483 369 516 c 128,-1,8
 358 549 358 549 349 576.5 c 128,-1,9
 340 604 340 604 337 612 c 1,10,-1
 360 613 l 1,11,12
 354 596 354 596 345.5 570 c 128,-1,13
 337 544 337 544 327.5 515 c 128,-1,14
 318 486 318 486 309 460.5 c 128,-1,15
 300 435 300 435 294 418 c 2,16,-1
 135 0 l 1,17,-1
 25 0 l 1,0,-1
145 174 m 1,18,-1
 185 278 l 1,19,-1
 503 278 l 1,20,-1
 549 174 l 1,21,-1
 145 174 l 1,18,-1
EndSplineSet
Validated: 5
Substitution2: "Single Substitution lookup 34 subtable" ordfeminine
Substitution2: "'aalt' Access All Alternates lookup 0 subtable" ordfeminine
EndChar

StartChar: B
Encoding: 66 66 2
Width: 681
GlyphClass: 2
Flags: W
AnchorPoint: "Anchor-1" 341 0 basechar 0
AnchorPoint: "Anchor-0" 341 700 basechar 0
LayerCount: 2
Fore
SplineSet
98 0 m 1,0,-1
 98 700 l 1,1,-1
 390 700 l 2,2,3
 457 700 457 700 503 680 c 128,-1,4
 549 660 549 660 572.5 620.5 c 128,-1,5
 596 581 596 581 596 524 c 256,6,7
 596 467 596 467 564.5 427 c 128,-1,8
 533 387 533 387 477 372 c 1,9,-1
 477 392 l 1,10,11
 524 382 524 382 559 356.5 c 128,-1,12
 594 331 594 331 613.5 293 c 128,-1,13
 633 255 633 255 633 206 c 0,14,15
 633 156 633 156 617.5 117.5 c 128,-1,16
 602 79 602 79 571.5 53 c 128,-1,17
 541 27 541 27 498 13.5 c 128,-1,18
 455 0 455 0 400 0 c 2,19,-1
 98 0 l 1,0,-1
206 104 m 1,20,-1
 394 104 l 2,21,22
 455 104 455 104 489 131 c 128,-1,23
 523 158 523 158 523 208 c 0,24,25
 523 239 523 239 506.5 261 c 128,-1,26
 490 283 490 283 460 294.5 c 128,-1,27
 430 306 430 306 389 306 c 2,28,-1
 206 306 l 1,29,-1
 206 104 l 1,20,-1
206 410 m 1,30,-1
 384 410 l 2,31,32
 414 410 414 410 437.5 422 c 128,-1,33
 461 434 461 434 474.5 455 c 128,-1,34
 488 476 488 476 488 503 c 0,35,36
 488 548 488 548 458 572 c 128,-1,37
 428 596 428 596 372 596 c 2,38,-1
 206 596 l 1,39,-1
 206 410 l 1,30,-1
EndSplineSet
Validated: 5
EndChar

StartChar: C
Encoding: 67 67 3
Width: 679
GlyphClass: 2
Flags: W
AnchorPoint: "Anchor-1" 376 0 basechar 0
AnchorPoint: "Anchor-0" 390 700 basechar 0
LayerCount: 2
Fore
SplineSet
382 -10 m 0,0,1
 309 -10 309 -10 248 16 c 128,-1,2
 187 42 187 42 142 90.5 c 128,-1,3
 97 139 97 139 72.5 205 c 128,-1,4
 48 271 48 271 48 350 c 0,5,6
 48 425 48 425 74.5 489.5 c 128,-1,7
 101 554 101 554 148 603 c 128,-1,8
 195 652 195 652 257 679 c 128,-1,9
 319 706 319 706 391 706 c 0,10,11
 442 706 442 706 490.5 690.5 c 128,-1,12
 539 675 539 675 578.5 647.5 c 128,-1,13
 618 620 618 620 643 585 c 1,14,-1
 571 510 l 1,15,16
 528 554 528 554 483 576 c 128,-1,17
 438 598 438 598 391 598 c 0,18,19
 342 598 342 598 299.5 579.5 c 128,-1,20
 257 561 257 561 225.5 528 c 128,-1,21
 194 495 194 495 176 449.5 c 128,-1,22
 158 404 158 404 158 350 c 0,23,24
 158 293 158 293 175.5 246.5 c 128,-1,25
 193 200 193 200 225 167 c 128,-1,26
 257 134 257 134 301.5 116.5 c 128,-1,27
 346 99 346 99 400 99 c 0,28,29
 433 99 433 99 465 108 c 128,-1,30
 497 117 497 117 525 134 c 128,-1,31
 553 151 553 151 576 174 c 1,32,-1
 630 86 l 1,33,34
 607 59 607 59 567.5 37 c 128,-1,35
 528 15 528 15 479.5 2.5 c 128,-1,36
 431 -10 431 -10 382 -10 c 0,0,1
EndSplineSet
Validated: 1
EndChar

StartChar: D
Encoding: 68 68 4
Width: 748
GlyphClass: 2
Flags: W
AnchorPoint: "Anchor-2" 188 350 basechar 0
AnchorPoint: "Anchor-1" 374 0 basechar 0
AnchorPoint: "Anchor-0" 374 700 basechar 0
LayerCount: 2
Fore
SplineSet
98 0 m 1,0,-1
 98 700 l 1,1,-1
 372 700 l 2,2,3
 447 700 447 700 507.5 675 c 128,-1,4
 568 650 568 650 611 603 c 128,-1,5
 654 556 654 556 677 492 c 128,-1,6
 700 428 700 428 700 350 c 256,7,8
 700 272 700 272 677 207.5 c 128,-1,9
 654 143 654 143 611.5 96.5 c 128,-1,10
 569 50 569 50 508 25 c 128,-1,11
 447 0 447 0 372 0 c 2,12,-1
 98 0 l 1,0,-1
206 93 m 1,13,-1
 203 104 l 1,14,-1
 367 104 l 2,15,16
 420 104 420 104 461.5 121 c 128,-1,17
 503 138 503 138 531.5 169.5 c 128,-1,18
 560 201 560 201 575 247 c 128,-1,19
 590 293 590 293 590 350 c 256,20,21
 590 407 590 407 575 452.5 c 128,-1,22
 560 498 560 498 531 530 c 128,-1,23
 502 562 502 562 461 579 c 128,-1,24
 420 596 420 596 367 596 c 2,25,-1
 200 596 l 1,26,-1
 206 605 l 1,27,-1
 206 93 l 1,13,-1
EndSplineSet
Validated: 5
EndChar

StartChar: E
Encoding: 69 69 5
Width: 614
GlyphClass: 2
Flags: W
AnchorPoint: "Anchor-4" 509 0 basechar 0
AnchorPoint: "Anchor-1" 307 0 basechar 0
AnchorPoint: "Anchor-0" 327 700 basechar 0
LayerCount: 2
Fore
SplineSet
98 0 m 1,0,-1
 98 700 l 1,1,-1
 539 700 l 1,2,-1
 539 596 l 1,3,-1
 206 596 l 1,4,-1
 206 104 l 1,5,-1
 539 104 l 1,6,-1
 539 0 l 1,7,-1
 98 0 l 1,0,-1
147 307 m 1,8,-1
 147 411 l 1,9,-1
 484 411 l 1,10,-1
 484 307 l 1,11,-1
 147 307 l 1,8,-1
EndSplineSet
Validated: 5
EndChar

StartChar: F
Encoding: 70 70 6
Width: 602
GlyphClass: 2
Flags: W
AnchorPoint: "Anchor-1" 301 0 basechar 0
AnchorPoint: "Anchor-0" 301 700 basechar 0
LayerCount: 2
Fore
SplineSet
98 0 m 1,0,-1
 98 700 l 1,1,-1
 206 700 l 1,2,-1
 206 0 l 1,3,-1
 98 0 l 1,0,-1
146 298 m 1,4,-1
 146 402 l 1,5,-1
 507 402 l 1,6,-1
 507 298 l 1,7,-1
 146 298 l 1,4,-1
146 596 m 1,8,-1
 146 700 l 1,9,-1
 552 700 l 1,10,-1
 552 596 l 1,11,-1
 146 596 l 1,8,-1
EndSplineSet
Validated: 5
EndChar

StartChar: G
Encoding: 71 71 7
Width: 766
GlyphClass: 2
Flags: W
AnchorPoint: "Anchor-1" 383 0 basechar 0
AnchorPoint: "Anchor-0" 403 700 basechar 0
LayerCount: 2
Fore
SplineSet
411 -10 m 0,0,1
 335 -10 335 -10 269 17.5 c 128,-1,2
 203 45 203 45 153 94 c 128,-1,3
 103 143 103 143 75.5 208.5 c 128,-1,4
 48 274 48 274 48 350 c 0,5,6
 48 425 48 425 75.5 490 c 128,-1,7
 103 555 103 555 152.5 603.5 c 128,-1,8
 202 652 202 652 268 679 c 128,-1,9
 334 706 334 706 410 706 c 0,10,11
 463 706 463 706 513.5 691 c 128,-1,12
 564 676 564 676 605 649 c 128,-1,13
 646 622 646 622 672 587 c 1,14,-1
 602 514 l 1,15,16
 557 557 557 557 508.5 579 c 128,-1,17
 460 601 460 601 410 601 c 0,18,19
 356 601 356 601 310.5 582 c 128,-1,20
 265 563 265 563 230.5 529 c 128,-1,21
 196 495 196 495 177 449.5 c 128,-1,22
 158 404 158 404 158 350 c 0,23,24
 158 298 158 298 178 251.5 c 128,-1,25
 198 205 198 205 233.5 170 c 128,-1,26
 269 135 269 135 315.5 115 c 128,-1,27
 362 95 362 95 414 95 c 0,28,29
 453 95 453 95 488 106.5 c 128,-1,30
 523 118 523 118 550 139 c 128,-1,31
 577 160 577 160 592 187.5 c 128,-1,32
 607 215 607 215 607 246 c 2,33,-1
 607 266 l 1,34,-1
 622 252 l 1,35,-1
 408 252 l 1,36,-1
 408 359 l 1,37,-1
 718 359 l 1,38,39
 720 348 720 348 721 337.5 c 128,-1,40
 722 327 722 327 722.5 317.5 c 128,-1,41
 723 308 723 308 723 299 c 0,42,43
 723 230 723 230 699 173.5 c 128,-1,44
 675 117 675 117 632.5 76 c 128,-1,45
 590 35 590 35 533.5 12.5 c 128,-1,46
 477 -10 477 -10 411 -10 c 0,0,1
EndSplineSet
Validated: 5
EndChar

StartChar: H
Encoding: 72 72 8
Width: 761
GlyphClass: 2
Flags: W
AnchorPoint: "Anchor-2" 381 350 basechar 0
AnchorPoint: "Anchor-1" 381 0 basechar 0
AnchorPoint: "Anchor-0" 381 700 basechar 0
LayerCount: 2
Fore
SplineSet
555 0 m 1,0,-1
 555 700 l 1,1,-1
 663 700 l 1,2,-1
 663 0 l 1,3,-1
 555 0 l 1,0,-1
98 0 m 1,4,-1
 98 700 l 1,5,-1
 206 700 l 1,6,-1
 206 0 l 1,7,-1
 98 0 l 1,4,-1
145 297 m 1,8,-1
 145 401 l 1,9,-1
 603 401 l 1,10,-1
 603 297 l 1,11,-1
 145 297 l 1,8,-1
EndSplineSet
Validated: 5
EndChar

StartChar: I
Encoding: 73 73 9
Width: 478
GlyphClass: 2
Flags: W
AnchorPoint: "Anchor-4" 343 0 basechar 0
AnchorPoint: "Anchor-1" 239 0 basechar 0
AnchorPoint: "Anchor-0" 239 700 basechar 0
LayerCount: 2
Fore
SplineSet
72 0 m 1,0,-1
 72 100 l 1,1,-1
 185 100 l 1,2,-1
 185 600 l 1,3,-1
 72 600 l 1,4,-1
 72 700 l 1,5,-1
 406 700 l 1,6,-1
 406 600 l 1,7,-1
 293 600 l 1,8,-1
 293 100 l 1,9,-1
 406 100 l 1,10,-1
 406 0 l 1,11,-1
 72 0 l 1,0,-1
EndSplineSet
Validated: 1
Substitution2: "'ss03' Style Set 3 lookup 56 subtable" I.ss03
Substitution2: "'aalt' Access All Alternates lookup 0 subtable" I.ss03
EndChar

StartChar: J
Encoding: 74 74 10
Width: 642
GlyphClass: 2
Flags: W
AnchorPoint: "Anchor-1" 321 0 basechar 0
AnchorPoint: "Anchor-0" 426 700 basechar 0
LayerCount: 2
Fore
SplineSet
256 -10 m 0,0,1
 222 -10 222 -10 191 -1 c 128,-1,2
 160 8 160 8 133.5 25 c 128,-1,3
 107 42 107 42 86 65.5 c 128,-1,4
 65 89 65 89 50 117 c 1,5,-1
 118 188 l 1,6,7
 147 149 147 149 168.5 129 c 128,-1,8
 190 109 190 109 210.5 102 c 128,-1,9
 231 95 231 95 256 95 c 0,10,11
 292 95 292 95 319 111.5 c 128,-1,12
 346 128 346 128 361 157 c 128,-1,13
 376 186 376 186 376 223 c 2,14,-1
 376 600 l 1,15,-1
 248 600 l 1,16,-1
 248 700 l 1,17,-1
 592 700 l 1,18,-1
 592 600 l 1,19,-1
 484 600 l 1,20,-1
 484 213 l 2,21,22
 484 165 484 165 467.5 124.5 c 128,-1,23
 451 84 451 84 420.5 54 c 128,-1,24
 390 24 390 24 348.5 7 c 128,-1,25
 307 -10 307 -10 256 -10 c 0,0,1
EndSplineSet
Validated: 1
Substitution2: "'ss03' Style Set 3 lookup 56 subtable" J.ss03
Substitution2: "'aalt' Access All Alternates lookup 0 subtable" J.ss03
EndChar

StartChar: K
Encoding: 75 75 11
Width: 732
GlyphClass: 2
Flags: W
AnchorPoint: "Anchor-1" 366 0 basechar 0
AnchorPoint: "Anchor-0" 366 700 basechar 0
LayerCount: 2
Fore
SplineSet
188 212 m 1,0,-1
 182 333 l 1,1,-1
 549 700 l 1,2,-1
 691 700 l 1,3,-1
 188 212 l 1,0,-1
98 0 m 1,4,-1
 98 700 l 1,5,-1
 206 700 l 1,6,-1
 206 0 l 1,7,-1
 98 0 l 1,4,-1
562 0 m 1,8,-1
 294 358 l 1,9,-1
 374 427 l 1,10,-1
 697 0 l 1,11,-1
 562 0 l 1,8,-1
EndSplineSet
Validated: 5
EndChar

StartChar: L
Encoding: 76 76 12
Width: 599
GlyphClass: 2
Flags: W
AnchorPoint: "Anchor-3" 293 700 basechar 0
AnchorPoint: "Anchor-2" 153 350 basechar 0
AnchorPoint: "Anchor-1" 300 0 basechar 0
AnchorPoint: "Anchor-0" 153 700 basechar 0
LayerCount: 2
Fore
SplineSet
98 0 m 1,0,-1
 98 700 l 1,1,-1
 206 700 l 1,2,-1
 206 104 l 1,3,-1
 534 104 l 1,4,-1
 534 0 l 1,5,-1
 98 0 l 1,0,-1
EndSplineSet
Validated: 1
EndChar

StartChar: M
Encoding: 77 77 13
Width: 864
GlyphClass: 2
Flags: W
AnchorPoint: "Anchor-1" 432 0 basechar 0
AnchorPoint: "Anchor-0" 432 700 basechar 0
LayerCount: 2
Fore
SplineSet
98 0 m 1,0,-1
 98 700 l 1,1,-1
 204 700 l 1,2,-1
 459 285 l 1,3,-1
 408 286 l 1,4,-1
 666 700 l 1,5,-1
 766 700 l 1,6,-1
 766 0 l 1,7,-1
 658 0 l 1,8,-1
 658 287 l 2,9,10
 658 377 658 377 662.5 449 c 128,-1,11
 667 521 667 521 678 592 c 1,12,-1
 692 555 l 1,13,-1
 463 201 l 1,14,-1
 397 201 l 1,15,-1
 175 551 l 1,16,-1
 186 592 l 1,17,18
 197 525 197 525 201.5 454.5 c 128,-1,19
 206 384 206 384 206 287 c 2,20,-1
 206 0 l 1,21,-1
 98 0 l 1,0,-1
EndSplineSet
Validated: 5
EndChar

StartChar: N
Encoding: 78 78 14
Width: 793
GlyphClass: 2
Flags: W
AnchorPoint: "Anchor-1" 397 0 basechar 0
AnchorPoint: "Anchor-0" 397 700 basechar 0
LayerCount: 2
Fore
SplineSet
98 0 m 1,0,-1
 98 700 l 1,1,-1
 195 700 l 1,2,-1
 623 127 l 1,3,-1
 607 118 l 1,4,5
 600 159 600 159 595.5 213 c 128,-1,6
 591 267 591 267 589 332 c 128,-1,7
 587 397 587 397 587 470 c 2,8,-1
 587 700 l 1,9,-1
 695 700 l 1,10,-1
 695 0 l 1,11,-1
 596 0 l 1,12,-1
 175 552 l 1,13,-1
 186 566 l 1,14,15
 193 490 193 490 197 441.5 c 128,-1,16
 201 393 201 393 203 364 c 128,-1,17
 205 335 205 335 205.5 318.5 c 128,-1,18
 206 302 206 302 206 291 c 2,19,-1
 206 0 l 1,20,-1
 98 0 l 1,0,-1
EndSplineSet
Validated: 5
EndChar

StartChar: O
Encoding: 79 79 15
Width: 782
GlyphClass: 2
Flags: W
AnchorPoint: "Anchor-4" 563 0 basechar 0
AnchorPoint: "Anchor-3" 762 700 basechar 0
AnchorPoint: "Anchor-2" 391 350 basechar 0
AnchorPoint: "Anchor-1" 391 0 basechar 0
AnchorPoint: "Anchor-0" 391 700 basechar 0
LayerCount: 2
Fore
SplineSet
391 -10 m 256,0,1
 317 -10 317 -10 254.5 17 c 128,-1,2
 192 44 192 44 145.5 92.5 c 128,-1,3
 99 141 99 141 73.5 206.5 c 128,-1,4
 48 272 48 272 48 350 c 256,5,6
 48 428 48 428 73.5 493.5 c 128,-1,7
 99 559 99 559 145.5 607.5 c 128,-1,8
 192 656 192 656 254.5 683 c 128,-1,9
 317 710 317 710 391 710 c 256,10,11
 465 710 465 710 527.5 683 c 128,-1,12
 590 656 590 656 636.5 607 c 128,-1,13
 683 558 683 558 708.5 492.5 c 128,-1,14
 734 427 734 427 734 350 c 256,15,16
 734 273 734 273 708.5 207.5 c 128,-1,17
 683 142 683 142 636.5 93 c 128,-1,18
 590 44 590 44 527.5 17 c 128,-1,19
 465 -10 465 -10 391 -10 c 256,0,1
391 95 m 0,20,21
 442 95 442 95 484.5 114 c 128,-1,22
 527 133 527 133 558 167.5 c 128,-1,23
 589 202 589 202 606.5 248.5 c 128,-1,24
 624 295 624 295 624 350 c 256,25,26
 624 405 624 405 606.5 451.5 c 128,-1,27
 589 498 589 498 558 532.5 c 128,-1,28
 527 567 527 567 484.5 586 c 128,-1,29
 442 605 442 605 391 605 c 256,30,31
 340 605 340 605 297.5 586 c 128,-1,32
 255 567 255 567 223.5 533 c 128,-1,33
 192 499 192 499 175 452.5 c 128,-1,34
 158 406 158 406 158 350 c 0,35,36
 158 276 158 276 188 218.5 c 128,-1,37
 218 161 218 161 270.5 128 c 128,-1,38
 323 95 323 95 391 95 c 0,20,21
EndSplineSet
Validated: 1
Substitution2: "Single Substitution lookup 34 subtable" ordmasculine
Substitution2: "'aalt' Access All Alternates lookup 0 subtable" ordmasculine
EndChar

StartChar: P
Encoding: 80 80 16
Width: 634
GlyphClass: 2
Flags: W
AnchorPoint: "Anchor-1" 317 0 basechar 0
AnchorPoint: "Anchor-0" 317 700 basechar 0
LayerCount: 2
Fore
SplineSet
98 0 m 1,0,-1
 98 700 l 1,1,-1
 383 700 l 2,2,3
 440 700 440 700 486.5 671.5 c 128,-1,4
 533 643 533 643 561 594 c 128,-1,5
 589 545 589 545 589 485 c 256,6,7
 589 425 589 425 561 376 c 128,-1,8
 533 327 533 327 486.5 297.5 c 128,-1,9
 440 268 440 268 383 268 c 2,10,-1
 206 268 l 1,11,-1
 206 0 l 1,12,-1
 98 0 l 1,0,-1
206 372 m 1,13,-1
 381 372 l 2,14,15
 408 372 408 372 430 387.5 c 128,-1,16
 452 403 452 403 465.5 428.5 c 128,-1,17
 479 454 479 454 479 485 c 256,18,19
 479 516 479 516 465.5 541 c 128,-1,20
 452 566 452 566 430 581 c 128,-1,21
 408 596 408 596 381 596 c 2,22,-1
 206 596 l 1,23,-1
 206 372 l 1,13,-1
EndSplineSet
Validated: 1
EndChar

StartChar: Q
Encoding: 81 81 17
Width: 782
GlyphClass: 2
Flags: W
AnchorPoint: "Anchor-4" 563 0 basechar 0
AnchorPoint: "Anchor-3" 762 700 basechar 0
AnchorPoint: "Anchor-2" 391 350 basechar 0
AnchorPoint: "Anchor-1" 391 0 basechar 0
AnchorPoint: "Anchor-0" 391 700 basechar 0
LayerCount: 2
Fore
SplineSet
613 -110 m 1,0,-1
 348 237 l 1,1,-1
 437 296 l 1,2,-1
 699 -48 l 1,3,-1
 613 -110 l 1,0,-1
391 -10 m 256,4,5
 317 -10 317 -10 254.5 17 c 128,-1,6
 192 44 192 44 145.5 92.5 c 128,-1,7
 99 141 99 141 73.5 206.5 c 128,-1,8
 48 272 48 272 48 350 c 256,9,10
 48 428 48 428 73.5 493.5 c 128,-1,11
 99 559 99 559 145.5 607.5 c 128,-1,12
 192 656 192 656 254.5 683 c 128,-1,13
 317 710 317 710 391 710 c 256,14,15
 465 710 465 710 527.5 683 c 128,-1,16
 590 656 590 656 636.5 607 c 128,-1,17
 683 558 683 558 708.5 492.5 c 128,-1,18
 734 427 734 427 734 350 c 256,19,20
 734 273 734 273 708.5 207.5 c 128,-1,21
 683 142 683 142 636.5 93 c 128,-1,22
 590 44 590 44 527.5 17 c 128,-1,23
 465 -10 465 -10 391 -10 c 256,4,5
391 95 m 0,24,25
 442 95 442 95 484.5 114 c 128,-1,26
 527 133 527 133 558 167.5 c 128,-1,27
 589 202 589 202 606.5 248.5 c 128,-1,28
 624 295 624 295 624 350 c 256,29,30
 624 405 624 405 606.5 451.5 c 128,-1,31
 589 498 589 498 558 532.5 c 128,-1,32
 527 567 527 567 484.5 586 c 128,-1,33
 442 605 442 605 391 605 c 256,34,35
 340 605 340 605 297.5 586 c 128,-1,36
 255 567 255 567 223.5 533 c 128,-1,37
 192 499 192 499 175 452.5 c 128,-1,38
 158 406 158 406 158 350 c 0,39,40
 158 276 158 276 188 218.5 c 128,-1,41
 218 161 218 161 270.5 128 c 128,-1,42
 323 95 323 95 391 95 c 0,24,25
EndSplineSet
Validated: 5
EndChar

StartChar: R
Encoding: 82 82 18
Width: 695
GlyphClass: 2
Flags: W
AnchorPoint: "Anchor-1" 348 0 basechar 0
AnchorPoint: "Anchor-0" 318 700 basechar 0
LayerCount: 2
Fore
SplineSet
98 0 m 1,0,-1
 98 700 l 1,1,-1
 396 700 l 2,2,3
 456 700 456 700 506.5 670.5 c 128,-1,4
 557 641 557 641 587 590.5 c 128,-1,5
 617 540 617 540 617 477 c 0,6,7
 617 420 617 420 587 371 c 128,-1,8
 557 322 557 322 507 292.5 c 128,-1,9
 457 263 457 263 396 263 c 2,10,-1
 206 263 l 1,11,-1
 206 0 l 1,12,-1
 98 0 l 1,0,-1
514 0 m 1,13,-1
 336 316 l 1,14,-1
 447 341 l 1,15,-1
 645 -1 l 1,16,-1
 514 0 l 1,13,-1
206 367 m 1,17,-1
 406 367 l 2,18,19
 435 367 435 367 458 381.5 c 128,-1,20
 481 396 481 396 494 421.5 c 128,-1,21
 507 447 507 447 507 478 c 0,22,23
 507 513 507 513 490.5 539.5 c 128,-1,24
 474 566 474 566 444.5 581 c 128,-1,25
 415 596 415 596 378 596 c 2,26,-1
 206 596 l 1,27,-1
 206 367 l 1,17,-1
EndSplineSet
Validated: 5
EndChar

StartChar: S
Encoding: 83 83 19
Width: 624
GlyphClass: 2
Flags: W
AnchorPoint: "Anchor-1" 332 0 basechar 0
AnchorPoint: "Anchor-0" 332 700 basechar 0
LayerCount: 2
Fore
SplineSet
314 -10 m 0,0,1
 228 -10 228 -10 162.5 24 c 128,-1,2
 97 58 97 58 50 126 c 1,3,-1
 124 211 l 1,4,5
 173 141 173 141 218 114 c 128,-1,6
 263 87 263 87 325 87 c 0,7,8
 363 87 363 87 394 99 c 128,-1,9
 425 111 425 111 443 132 c 128,-1,10
 461 153 461 153 461 180 c 0,11,12
 461 198 461 198 455 214 c 128,-1,13
 449 230 449 230 436.5 243 c 128,-1,14
 424 256 424 256 404.5 267 c 128,-1,15
 385 278 385 278 359 286.5 c 128,-1,16
 333 295 333 295 299 301 c 0,17,18
 245 312 245 312 205 330 c 128,-1,19
 165 348 165 348 138 375 c 128,-1,20
 111 402 111 402 98 436.5 c 128,-1,21
 85 471 85 471 85 514 c 0,22,23
 85 571 85 571 117 615 c 128,-1,24
 149 659 149 659 203.5 684.5 c 128,-1,25
 258 710 258 710 326 710 c 0,26,27
 407 710 407 710 467.5 678.5 c 128,-1,28
 528 647 528 647 563 587 c 1,29,-1
 487 512 l 1,30,31
 457 561 457 561 415.5 587 c 128,-1,32
 374 613 374 613 323 613 c 0,33,34
 284 613 284 613 255 601 c 128,-1,35
 226 589 226 589 209.5 567.5 c 128,-1,36
 193 546 193 546 193 517 c 0,37,38
 193 496 193 496 201 478.5 c 128,-1,39
 209 461 209 461 225.5 447.5 c 128,-1,40
 242 434 242 434 270 423.5 c 128,-1,41
 298 413 298 413 337 405 c 0,42,43
 392 393 392 393 435 374.5 c 128,-1,44
 478 356 478 356 508 331 c 128,-1,45
 538 306 538 306 553.5 275 c 128,-1,46
 569 244 569 244 569 208 c 0,47,48
 569 141 569 141 538 92 c 128,-1,49
 507 43 507 43 450 16.5 c 128,-1,50
 393 -10 393 -10 314 -10 c 0,0,1
EndSplineSet
Validated: 1
EndChar

StartChar: T
Encoding: 84 84 20
Width: 576
GlyphClass: 2
Flags: W
AnchorPoint: "Anchor-2" 288 350 basechar 0
AnchorPoint: "Anchor-1" 288 0 basechar 0
AnchorPoint: "Anchor-0" 288 700 basechar 0
LayerCount: 2
Fore
SplineSet
231 0 m 1,0,-1
 231 596 l 1,1,-1
 35 596 l 1,2,-1
 35 700 l 1,3,-1
 541 700 l 1,4,-1
 541 596 l 1,5,-1
 339 596 l 1,6,-1
 339 0 l 1,7,-1
 231 0 l 1,0,-1
EndSplineSet
Validated: 1
EndChar

StartChar: U
Encoding: 85 85 21
Width: 740
GlyphClass: 2
Flags: W
AnchorPoint: "Anchor-4" 540 0 basechar 0
AnchorPoint: "Anchor-3" 720 700 basechar 0
AnchorPoint: "Anchor-1" 370 0 basechar 0
AnchorPoint: "Anchor-0" 370 700 basechar 0
LayerCount: 2
Fore
SplineSet
370 -6 m 256,0,1
 289 -6 289 -6 225 29.5 c 128,-1,2
 161 65 161 65 124.5 127.5 c 128,-1,3
 88 190 88 190 88 269 c 2,4,-1
 88 701 l 1,5,-1
 196 701 l 1,6,-1
 196 278 l 2,7,8
 196 227 196 227 220 186.5 c 128,-1,9
 244 146 244 146 283.5 122 c 128,-1,10
 323 98 323 98 370 98 c 0,11,12
 420 98 420 98 460.5 122 c 128,-1,13
 501 146 501 146 525 186.5 c 128,-1,14
 549 227 549 227 549 278 c 2,15,-1
 549 701 l 1,16,-1
 652 701 l 1,17,-1
 652 269 l 2,18,19
 652 190 652 190 615.5 127.5 c 128,-1,20
 579 65 579 65 515 29.5 c 128,-1,21
 451 -6 451 -6 370 -6 c 256,0,1
EndSplineSet
Validated: 1
EndChar

StartChar: V
Encoding: 86 86 22
Width: 715
GlyphClass: 2
Flags: W
AnchorPoint: "Anchor-1" 358 0 basechar 0
AnchorPoint: "Anchor-0" 358 700 basechar 0
LayerCount: 2
Fore
SplineSet
304 0 m 1,0,-1
 24 700 l 1,1,-1
 147 700 l 1,2,-1
 314 275 l 2,3,4
 326 244 326 244 335.5 219 c 128,-1,5
 345 194 345 194 352 173.5 c 128,-1,6
 359 153 359 153 365 135 c 128,-1,7
 371 117 371 117 377 99 c 1,8,-1
 351 98 l 1,9,10
 358 122 358 122 366 148 c 128,-1,11
 374 174 374 174 384.5 205 c 128,-1,12
 395 236 395 236 410 275 c 2,13,-1
 565 700 l 1,14,-1
 691 700 l 1,15,-1
 409 0 l 1,16,-1
 304 0 l 1,0,-1
EndSplineSet
Validated: 5
EndChar

StartChar: W
Encoding: 87 87 23
Width: 996
GlyphClass: 2
Flags: W
AnchorPoint: "Anchor-1" 498 0 basechar 0
AnchorPoint: "Anchor-0" 498 700 basechar 0
LayerCount: 2
Fore
SplineSet
247 0 m 1,0,-1
 24 700 l 1,1,-1
 139 700 l 1,2,-1
 274 262 l 2,3,4
 282 240 282 240 288 210 c 128,-1,5
 294 180 294 180 299.5 152.5 c 128,-1,6
 305 125 305 125 308 109 c 1,7,-1
 279 110 l 1,8,9
 294 163 294 163 302.5 192 c 128,-1,10
 311 221 311 221 316 236.5 c 128,-1,11
 321 252 321 252 325 263 c 2,12,-1
 451 579 l 1,13,-1
 548 579 l 1,14,-1
 670 263 l 2,15,16
 680 239 680 239 687.5 215.5 c 128,-1,17
 695 192 695 192 701 168.5 c 128,-1,18
 707 145 707 145 714 119 c 1,19,-1
 688 112 l 1,20,21
 693 139 693 139 695.5 154.5 c 128,-1,22
 698 170 698 170 700 180 c 128,-1,23
 702 190 702 190 704 199.5 c 128,-1,24
 706 209 706 209 710.5 224 c 128,-1,25
 715 239 715 239 723 265 c 2,26,-1
 856 700 l 1,27,-1
 972 700 l 1,28,-1
 749 0 l 1,29,-1
 674 0 l 1,30,-1
 489 438 l 1,31,-1
 498 434 l 1,32,-1
 320 0 l 1,33,-1
 247 0 l 1,0,-1
EndSplineSet
Validated: 5
EndChar

StartChar: X
Encoding: 88 88 24
Width: 685
GlyphClass: 2
Flags: W
AnchorPoint: "Anchor-1" 343 0 basechar 0
AnchorPoint: "Anchor-0" 343 700 basechar 0
LayerCount: 2
Fore
SplineSet
524 0 m 1,0,-1
 307 314 l 1,1,-1
 29 700 l 1,2,-1
 166 700 l 1,3,-1
 378 390 l 1,4,-1
 661 0 l 1,5,-1
 524 0 l 1,0,-1
24 0 m 1,6,-1
 291 381 l 1,7,-1
 358 302 l 1,8,-1
 151 0 l 1,9,-1
 24 0 l 1,6,-1
394 325 m 1,10,-1
 328 401 l 1,11,-1
 524 700 l 1,12,-1
 651 700 l 1,13,-1
 394 325 l 1,10,-1
EndSplineSet
Validated: 5
EndChar

StartChar: Y
Encoding: 89 89 25
Width: 660
GlyphClass: 2
Flags: W
AnchorPoint: "Anchor-1" 330 0 basechar 0
AnchorPoint: "Anchor-0" 330 700 basechar 0
LayerCount: 2
Fore
SplineSet
286 0 m 1,0,-1
 286 349 l 1,1,-1
 293 300 l 1,2,-1
 10 700 l 1,3,-1
 140 700 l 1,4,-1
 356 390 l 1,5,-1
 331 393 l 1,6,-1
 526 700 l 1,7,-1
 650 700 l 1,8,-1
 379 289 l 1,9,-1
 394 357 l 1,10,-1
 394 0 l 1,11,-1
 286 0 l 1,0,-1
EndSplineSet
Validated: 5
EndChar

StartChar: Z
Encoding: 90 90 26
Width: 659
GlyphClass: 2
Flags: W
AnchorPoint: "Anchor-2" 330 350 basechar 0
AnchorPoint: "Anchor-1" 330 0 basechar 0
AnchorPoint: "Anchor-0" 330 700 basechar 0
LayerCount: 2
Fore
SplineSet
60 0 m 1,0,-1
 60 79 l 1,1,-1
 459 613 l 1,2,-1
 474 596 l 1,3,-1
 86 596 l 1,4,-1
 86 700 l 1,5,-1
 593 700 l 1,6,-1
 593 622 l 1,7,-1
 196 87 l 1,8,-1
 180 104 l 1,9,-1
 604 104 l 1,10,-1
 604 0 l 1,11,-1
 60 0 l 1,0,-1
EndSplineSet
Validated: 5
EndChar

StartChar: a
Encoding: 97 97 27
Width: 534
GlyphClass: 2
Flags: W
AnchorPoint: "Anchor-4" 476 0 basechar 0
AnchorPoint: "Anchor-1" 267 0 basechar 0
AnchorPoint: "Anchor-0" 267 525 basechar 0
LayerCount: 2
Fore
SplineSet
383 0 m 1,0,-1
 383 342 l 2,1,2
 383 386 383 386 351.5 413.5 c 128,-1,3
 320 441 320 441 272 441 c 0,4,5
 228 441 228 441 192.5 423 c 128,-1,6
 157 405 157 405 128 368 c 1,7,-1
 61 435 l 1,8,9
 108 486 108 486 162.5 511 c 128,-1,10
 217 536 217 536 280 536 c 0,11,12
 340 536 340 536 384 516 c 128,-1,13
 428 496 428 496 452 457.5 c 128,-1,14
 476 419 476 419 476 364 c 2,15,-1
 476 0 l 1,16,-1
 383 0 l 1,0,-1
226 -10 m 0,17,18
 175 -10 175 -10 135 10 c 128,-1,19
 95 30 95 30 71.5 65.5 c 128,-1,20
 48 101 48 101 48 149 c 0,21,22
 48 191 48 191 63 223 c 128,-1,23
 78 255 78 255 107.5 276 c 128,-1,24
 137 297 137 297 181.5 308 c 128,-1,25
 226 319 226 319 284 319 c 2,26,-1
 430 319 l 1,27,-1
 421 237 l 1,28,-1
 271 237 l 2,29,30
 241 237 241 237 217.5 231.5 c 128,-1,31
 194 226 194 226 177.5 214.5 c 128,-1,32
 161 203 161 203 153 187.5 c 128,-1,33
 145 172 145 172 145 151 c 0,34,35
 145 129 145 129 156 112.5 c 128,-1,36
 167 96 167 96 186 87 c 128,-1,37
 205 78 205 78 230 78 c 0,38,39
 266 78 266 78 298.5 90.5 c 128,-1,40
 331 103 331 103 356.5 125 c 128,-1,41
 382 147 382 147 396 174 c 1,42,-1
 420 107 l 1,43,44
 399 72 399 72 368 46 c 128,-1,45
 337 20 337 20 301 5 c 128,-1,46
 265 -10 265 -10 226 -10 c 0,17,18
EndSplineSet
Validated: 5
Substitution2: "'ss01' Style Set 1 lookup 54 subtable" a.ss01
Substitution2: "Single Substitution lookup 34 subtable" ordfeminine
AlternateSubs2: "'aalt' Access All Alternates lookup 1 subtable" a.ss01 ordfeminine
EndChar

StartChar: b
Encoding: 98 98 28
Width: 630
GlyphClass: 2
Flags: W
AnchorPoint: "Anchor-1" 315 0 basechar 0
AnchorPoint: "Anchor-0" 315 740 basechar 0
LayerCount: 2
Fore
SplineSet
348 -10 m 0,0,1
 314 -10 314 -10 280.5 1 c 128,-1,2
 247 12 247 12 219.5 30.5 c 128,-1,3
 192 49 192 49 173.5 71.5 c 128,-1,4
 155 94 155 94 149 117 c 1,5,-1
 175 131 l 1,6,-1
 175 3 l 1,7,-1
 72 3 l 1,8,-1
 72 740 l 1,9,-1
 175 740 l 1,10,-1
 175 405 l 1,11,-1
 159 414 l 1,12,13
 164 437 164 437 181 458.5 c 128,-1,14
 198 480 198 480 224.5 497.5 c 128,-1,15
 251 515 251 515 282 525.5 c 128,-1,16
 313 536 313 536 345 536 c 0,17,18
 416 536 416 536 471 501 c 128,-1,19
 526 466 526 466 558 404.5 c 128,-1,20
 590 343 590 343 590 264 c 256,21,22
 590 185 590 185 558.5 123 c 128,-1,23
 527 61 527 61 472 25.5 c 128,-1,24
 417 -10 417 -10 348 -10 c 0,0,1
331 84 m 0,25,26
 377 84 377 84 413 107.5 c 128,-1,27
 449 131 449 131 470 171.5 c 128,-1,28
 491 212 491 212 491 264 c 0,29,30
 491 315 491 315 470.5 355.5 c 128,-1,31
 450 396 450 396 414 419 c 128,-1,32
 378 442 378 442 331 442 c 256,33,34
 284 442 284 442 248 419 c 128,-1,35
 212 396 212 396 191 355.5 c 128,-1,36
 170 315 170 315 170 264 c 0,37,38
 170 212 170 212 191 171.5 c 128,-1,39
 212 131 212 131 248 107.5 c 128,-1,40
 284 84 284 84 331 84 c 0,25,26
EndSplineSet
Validated: 5
EndChar

StartChar: c
Encoding: 99 99 29
Width: 535
GlyphClass: 2
Flags: W
AnchorPoint: "Anchor-1" 296 0 basechar 0
AnchorPoint: "Anchor-0" 295 525 basechar 0
LayerCount: 2
Fore
SplineSet
295 -10 m 0,0,1
 222 -10 222 -10 164.5 26 c 128,-1,2
 107 62 107 62 73.5 124 c 128,-1,3
 40 186 40 186 40 263 c 256,4,5
 40 340 40 340 73.5 402 c 128,-1,6
 107 464 107 464 164.5 500 c 128,-1,7
 222 536 222 536 295 536 c 0,8,9
 365 536 365 536 422.5 507.5 c 128,-1,10
 480 479 480 479 510 430 c 1,11,-1
 453 360 l 1,12,13
 437 383 437 383 412 402 c 128,-1,14
 387 421 387 421 359 432 c 128,-1,15
 331 443 331 443 305 443 c 0,16,17
 257 443 257 443 219.5 419.5 c 128,-1,18
 182 396 182 396 160 355 c 128,-1,19
 138 314 138 314 138 263 c 256,20,21
 138 212 138 212 161 171.5 c 128,-1,22
 184 131 184 131 222 107 c 128,-1,23
 260 83 260 83 306 83 c 0,24,25
 333 83 333 83 358.5 92 c 128,-1,26
 384 101 384 101 408 119 c 128,-1,27
 432 137 432 137 453 163 c 1,28,-1
 510 93 l 1,29,30
 478 48 478 48 418.5 19 c 128,-1,31
 359 -10 359 -10 295 -10 c 0,0,1
EndSplineSet
Validated: 1
EndChar

StartChar: d
Encoding: 100 100 30
Width: 634
GlyphClass: 2
Flags: W
AnchorPoint: "Anchor-3" 594 740 basechar 0
AnchorPoint: "Anchor-2" 500 634 basechar 0
AnchorPoint: "Anchor-1" 317 0 basechar 0
AnchorPoint: "Anchor-0" 317 740 basechar 0
LayerCount: 2
Fore
SplineSet
291 -10 m 0,0,1
 219 -10 219 -10 162.5 25.5 c 128,-1,2
 106 61 106 61 73 122.5 c 128,-1,3
 40 184 40 184 40 263 c 256,4,5
 40 342 40 342 72.5 403.5 c 128,-1,6
 105 465 105 465 161 500.5 c 128,-1,7
 217 536 217 536 288 536 c 0,8,9
 327 536 327 536 363.5 523.5 c 128,-1,10
 400 511 400 511 429 489.5 c 128,-1,11
 458 468 458 468 474.5 442.5 c 128,-1,12
 491 417 491 417 491 391 c 1,13,-1
 461 389 l 1,14,-1
 461 740 l 1,15,-1
 564 740 l 1,16,-1
 564 0 l 1,17,-1
 461 0 l 1,18,-1
 461 125 l 1,19,-1
 481 125 l 1,20,21
 481 101 481 101 465 77.5 c 128,-1,22
 449 54 449 54 422.5 34 c 128,-1,23
 396 14 396 14 361.5 2 c 128,-1,24
 327 -10 327 -10 291 -10 c 0,0,1
305 79 m 256,25,26
 352 79 352 79 388 103 c 128,-1,27
 424 127 424 127 444.5 168.5 c 128,-1,28
 465 210 465 210 465 263 c 256,29,30
 465 316 465 316 444.5 357.5 c 128,-1,31
 424 399 424 399 388 423 c 128,-1,32
 352 447 352 447 305 447 c 256,33,34
 258 447 258 447 222 423 c 128,-1,35
 186 399 186 399 165.5 357.5 c 128,-1,36
 145 316 145 316 145 263 c 256,37,38
 145 210 145 210 165.5 168.5 c 128,-1,39
 186 127 186 127 222 103 c 128,-1,40
 258 79 258 79 305 79 c 256,25,26
EndSplineSet
Validated: 5
EndChar

StartChar: e
Encoding: 101 101 31
Width: 586
GlyphClass: 2
Flags: W
AnchorPoint: "Anchor-4" 499 0 basechar 0
AnchorPoint: "Anchor-1" 317 0 basechar 0
AnchorPoint: "Anchor-0" 308 525 basechar 0
LayerCount: 2
Fore
SplineSet
317 -10 m 0,0,1
 236 -10 236 -10 173.5 24.5 c 128,-1,2
 111 59 111 59 75.5 119 c 128,-1,3
 40 179 40 179 40 257 c 0,4,5
 40 319 40 319 60 370 c 128,-1,6
 80 421 80 421 115.5 458.5 c 128,-1,7
 151 496 151 496 200.5 516.5 c 128,-1,8
 250 537 250 537 308 537 c 0,9,10
 359 537 359 537 403 517.5 c 128,-1,11
 447 498 447 498 479.5 464 c 128,-1,12
 512 430 512 430 529.5 383.5 c 128,-1,13
 547 337 547 337 546 282 c 2,14,-1
 545 238 l 1,15,-1
 116 238 l 1,16,-1
 93 320 l 1,17,-1
 456 320 l 1,18,-1
 441 303 l 1,19,-1
 441 327 l 2,20,21
 438 360 438 360 419 386 c 128,-1,22
 400 412 400 412 371 427 c 128,-1,23
 342 442 342 442 308 442 c 0,24,25
 254 442 254 442 217 421.5 c 128,-1,26
 180 401 180 401 161 361.5 c 128,-1,27
 142 322 142 322 142 264 c 0,28,29
 142 209 142 209 165 168.5 c 128,-1,30
 188 128 188 128 230 106 c 128,-1,31
 272 84 272 84 327 84 c 0,32,33
 366 84 366 84 399.5 97 c 128,-1,34
 433 110 433 110 472 144 c 1,35,-1
 524 71 l 1,36,37
 500 47 500 47 465.5 29 c 128,-1,38
 431 11 431 11 392.5 0.5 c 128,-1,39
 354 -10 354 -10 317 -10 c 0,0,1
EndSplineSet
Validated: 37
EndChar

StartChar: f
Encoding: 102 102 32
Width: 393
GlyphClass: 2
Flags: W
AnchorPoint: "Anchor-1" 197 0 basechar 0
AnchorPoint: "Anchor-0" 197 740 basechar 0
LayerCount: 2
Fore
SplineSet
129 0 m 1,0,-1
 129 584 l 2,1,2
 129 629 129 629 149 664 c 128,-1,3
 169 699 169 699 204 719 c 128,-1,4
 239 739 239 739 285 739 c 0,5,6
 317 739 317 739 345 727 c 128,-1,7
 373 715 373 715 390 695 c 1,8,-1
 355 616 l 1,9,10
 342 628 342 628 326.5 635.5 c 128,-1,11
 311 643 311 643 297 643 c 0,12,13
 276 643 276 643 261.5 636.5 c 128,-1,14
 247 630 247 630 240 616.5 c 128,-1,15
 233 603 233 603 233 584 c 2,16,-1
 233 0 l 1,17,-1
 181 0 l 2,18,19
 168 0 168 0 155 0 c 128,-1,20
 142 0 142 0 129 0 c 1,0,-1
45 421 m 1,21,-1
 45 516 l 1,22,-1
 357 516 l 1,23,-1
 357 421 l 1,24,-1
 45 421 l 1,21,-1
EndSplineSet
Validated: 5
EndChar

StartChar: g
Encoding: 103 103 33
Width: 649
GlyphClass: 2
Flags: W
AnchorPoint: "Anchor-1" 325 -230 basechar 0
AnchorPoint: "Anchor-0" 325 525 basechar 0
LayerCount: 2
Fore
SplineSet
307 -230 m 0,0,1
 251 -230 251 -230 195.5 -212.5 c 128,-1,2
 140 -195 140 -195 106 -167 c 1,3,-1
 144 -87 l 1,4,5
 174 -110 174 -110 218.5 -124 c 128,-1,6
 263 -138 263 -138 307 -138 c 0,7,8
 362 -138 362 -138 399 -120 c 128,-1,9
 436 -102 436 -102 455 -67 c 128,-1,10
 474 -32 474 -32 474 20 c 2,11,-1
 474 121 l 1,12,-1
 485 114 l 1,13,14
 480 83 480 83 452.5 54.5 c 128,-1,15
 425 26 425 26 384 8 c 128,-1,16
 343 -10 343 -10 300 -10 c 0,17,18
 225 -10 225 -10 166.5 25.5 c 128,-1,19
 108 61 108 61 74 122.5 c 128,-1,20
 40 184 40 184 40 263 c 256,21,22
 40 342 40 342 73.5 403.5 c 128,-1,23
 107 465 107 465 165.5 500.5 c 128,-1,24
 224 536 224 536 297 536 c 0,25,26
 327 536 327 536 355 528.5 c 128,-1,27
 383 521 383 521 407 507.5 c 128,-1,28
 431 494 431 494 450 478 c 128,-1,29
 469 462 469 462 481 444 c 128,-1,30
 493 426 493 426 496 410 c 1,31,-1
 474 402 l 1,32,-1
 474 525 l 1,33,-1
 577 525 l 1,34,-1
 577 32 l 2,35,36
 577 -31 577 -31 558.5 -79.5 c 128,-1,37
 540 -128 540 -128 505 -161.5 c 128,-1,38
 470 -195 470 -195 420 -212.5 c 128,-1,39
 370 -230 370 -230 307 -230 c 0,0,1
311 85 m 0,40,41
 360 85 360 85 398 108 c 128,-1,42
 436 131 436 131 457 171 c 128,-1,43
 478 211 478 211 478 263 c 256,44,45
 478 315 478 315 456.5 355.5 c 128,-1,46
 435 396 435 396 397.5 419 c 128,-1,47
 360 442 360 442 311 442 c 0,48,49
 263 442 263 442 225.5 418.5 c 128,-1,50
 188 395 188 395 166.5 354.5 c 128,-1,51
 145 314 145 314 145 263 c 256,52,53
 145 212 145 212 166.5 171.5 c 128,-1,54
 188 131 188 131 225.5 108 c 128,-1,55
 263 85 263 85 311 85 c 0,40,41
EndSplineSet
Validated: 5
Substitution2: "'ss02' Style Set 2 lookup 55 subtable" g.ss02
Substitution2: "'aalt' Access All Alternates lookup 0 subtable" g.ss02
EndChar

StartChar: h
Encoding: 104 104 34
Width: 595
GlyphClass: 2
Flags: W
AnchorPoint: "Anchor-2" 146 638 basechar 0
AnchorPoint: "Anchor-1" 298 0 basechar 0
AnchorPoint: "Anchor-0" 298 740 basechar 0
LayerCount: 2
Fore
SplineSet
72 0 m 1,0,-1
 72 740 l 1,1,-1
 175 740 l 1,2,-1
 175 417 l 1,3,-1
 157 405 l 1,4,5
 167 440 167 440 196 469.5 c 128,-1,6
 225 499 225 499 265 517.5 c 128,-1,7
 305 536 305 536 347 536 c 0,8,9
 407 536 407 536 447 512.5 c 128,-1,10
 487 489 487 489 507 441 c 128,-1,11
 527 393 527 393 527 320 c 2,12,-1
 527 0 l 1,13,-1
 424 0 l 1,14,-1
 424 313 l 2,15,16
 424 358 424 358 412 387.5 c 128,-1,17
 400 417 400 417 375 430.5 c 128,-1,18
 350 444 350 444 313 442 c 0,19,20
 283 442 283 442 258 432.5 c 128,-1,21
 233 423 233 423 214.5 406 c 128,-1,22
 196 389 196 389 185.5 366.5 c 128,-1,23
 175 344 175 344 175 318 c 2,24,-1
 175 0 l 1,25,-1
 124 0 l 2,26,27
 111 0 111 0 98 0 c 128,-1,28
 85 0 85 0 72 0 c 1,0,-1
EndSplineSet
Validated: 37
EndChar

StartChar: i
Encoding: 105 105 35
Width: 278
GlyphClass: 2
Flags: W
AnchorPoint: "Anchor-4" 192 0 basechar 0
AnchorPoint: "Anchor-1" 139 0 basechar 0
AnchorPoint: "Anchor-0" 139 710 basechar 0
LayerCount: 2
Fore
SplineSet
89 0 m 1,0,-1
 89 525 l 1,1,-1
 192 525 l 1,2,-1
 192 0 l 1,3,-1
 89 0 l 1,0,-1
139 641 m 0,4,5
 106 641 106 641 88 658 c 128,-1,6
 70 675 70 675 70 706 c 0,7,8
 70 735 70 735 88.5 753 c 128,-1,9
 107 771 107 771 139 771 c 0,10,11
 172 771 172 771 190 754 c 128,-1,12
 208 737 208 737 208 706 c 0,13,14
 208 677 208 677 189.5 659 c 128,-1,15
 171 641 171 641 139 641 c 0,4,5
EndSplineSet
Validated: 1
Substitution2: "'locl' Localized Forms in Latin lookup 16 subtable" i.loclTRK
Substitution2: "'locl' Localized Forms in Latin lookup 15 subtable" i.loclTRK
Substitution2: "'locl' Localized Forms in Latin lookup 14 subtable" i.loclTRK
Substitution2: "'locl' Localized Forms in Latin lookup 13 subtable" i.loclTRK
Substitution2: "'locl' Localized Forms in Latin lookup 12 subtable" i.loclTRK
Substitution2: "Single Substitution lookup 4 subtable" dotlessi
Substitution2: "Single Substitution lookup 3 subtable" dotlessi
Substitution2: "'aalt' Access All Alternates lookup 0 subtable" i.loclTRK
EndChar

StartChar: j
Encoding: 106 106 36
Width: 265
GlyphClass: 2
Flags: W
LayerCount: 2
Fore
SplineSet
9 -197 m 1,0,-1
 -30 -118 l 1,1,2
 28 -118 28 -118 57 -88 c 128,-1,3
 86 -58 86 -58 86 1 c 2,4,-1
 86 525 l 1,5,-1
 189 525 l 1,6,-1
 189 -24 l 2,7,8
 189 -75 189 -75 166.5 -114 c 128,-1,9
 144 -153 144 -153 103.5 -175 c 128,-1,10
 63 -197 63 -197 9 -197 c 1,0,-1
140 641 m 0,11,12
 107 641 107 641 89 658 c 128,-1,13
 71 675 71 675 71 706 c 0,14,15
 71 735 71 735 89.5 753 c 128,-1,16
 108 771 108 771 140 771 c 0,17,18
 173 771 173 771 191 754 c 128,-1,19
 209 737 209 737 209 706 c 0,20,21
 209 677 209 677 190.5 659 c 128,-1,22
 172 641 172 641 140 641 c 0,11,12
EndSplineSet
Validated: 1
Substitution2: "Single Substitution lookup 4 subtable" uni0237
Substitution2: "Single Substitution lookup 3 subtable" uni0237
EndChar

StartChar: k
Encoding: 107 107 37
Width: 568
GlyphClass: 2
Flags: W
AnchorPoint: "Anchor-1" 283 0 basechar 0
AnchorPoint: "Anchor-0" 283 740 basechar 0
LayerCount: 2
Fore
SplineSet
166 164 m 1,0,-1
 161 276 l 1,1,-1
 412 525 l 1,2,-1
 551 525 l 1,3,-1
 166 164 l 1,0,-1
72 0 m 1,4,-1
 72 740 l 1,5,-1
 175 740 l 1,6,-1
 175 0 l 1,7,-1
 72 0 l 1,4,-1
426 0 m 1,8,-1
 228 231 l 1,9,-1
 301 298 l 1,10,-1
 558 0 l 1,11,-1
 426 0 l 1,8,-1
EndSplineSet
Validated: 5
EndChar

StartChar: l
Encoding: 108 108 38
Width: 251
GlyphClass: 2
Flags: W
AnchorPoint: "Anchor-3" 212 740 basechar 0
AnchorPoint: "Anchor-2" 126 370 basechar 0
AnchorPoint: "Anchor-1" 126 0 basechar 0
AnchorPoint: "Anchor-0" 126 740 basechar 0
LayerCount: 2
Fore
SplineSet
74 0 m 1,0,-1
 74 740 l 1,1,-1
 177 740 l 1,2,-1
 177 0 l 1,3,-1
 74 0 l 1,0,-1
EndSplineSet
Validated: 1
EndChar

StartChar: m
Encoding: 109 109 39
Width: 921
GlyphClass: 2
Flags: W
AnchorPoint: "Anchor-1" 461 0 basechar 0
AnchorPoint: "Anchor-0" 461 525 basechar 0
LayerCount: 2
Fore
SplineSet
70 0 m 1,0,-1
 70 525 l 1,1,-1
 174 525 l 1,2,-1
 174 413 l 1,3,-1
 155 401 l 1,4,5
 163 427 163 427 180.5 451 c 128,-1,6
 198 475 198 475 223.5 493.5 c 128,-1,7
 249 512 249 512 278.5 523 c 128,-1,8
 308 534 308 534 339 534 c 0,9,10
 384 534 384 534 418 519 c 128,-1,11
 452 504 452 504 474 474 c 128,-1,12
 496 444 496 444 506 399 c 1,13,-1
 490 403 l 1,14,-1
 497 420 l 2,15,16
 508 443 508 443 527.5 463.5 c 128,-1,17
 547 484 547 484 572 500 c 128,-1,18
 597 516 597 516 625 525 c 128,-1,19
 653 534 653 534 680 534 c 0,20,21
 739 534 739 534 777.5 510 c 128,-1,22
 816 486 816 486 835.5 437 c 128,-1,23
 855 388 855 388 855 315 c 2,24,-1
 855 0 l 1,25,-1
 751 0 l 1,26,-1
 751 309 l 2,27,28
 751 376 751 376 725.5 407.5 c 128,-1,29
 700 439 700 439 646 439 c 0,30,31
 618 439 618 439 593.5 429.5 c 128,-1,32
 569 420 569 420 551 403 c 128,-1,33
 533 386 533 386 523 363.5 c 128,-1,34
 513 341 513 341 513 314 c 2,35,-1
 513 0 l 1,36,-1
 409 0 l 1,37,-1
 409 311 l 2,38,39
 409 373 409 373 382.5 406 c 128,-1,40
 356 439 356 439 306 439 c 0,41,42
 278 439 278 439 254 429.5 c 128,-1,43
 230 420 230 420 212 403.5 c 128,-1,44
 194 387 194 387 184 364.5 c 128,-1,45
 174 342 174 342 174 316 c 2,46,-1
 174 0 l 1,47,-1
 70 0 l 1,0,-1
EndSplineSet
Validated: 5
EndChar

StartChar: n
Encoding: 110 110 40
Width: 595
GlyphClass: 2
Flags: W
AnchorPoint: "Anchor-1" 298 0 basechar 0
AnchorPoint: "Anchor-0" 328 525 basechar 0
LayerCount: 2
Fore
SplineSet
72 0 m 1,0,-1
 72 525 l 1,1,-1
 175 525 l 1,2,-1
 175 417 l 1,3,-1
 157 405 l 1,4,5
 167 440 167 440 196 469.5 c 128,-1,6
 225 499 225 499 265 517.5 c 128,-1,7
 305 536 305 536 347 536 c 0,8,9
 407 536 407 536 447 512.5 c 128,-1,10
 487 489 487 489 507 441 c 128,-1,11
 527 393 527 393 527 320 c 2,12,-1
 527 0 l 1,13,-1
 424 0 l 1,14,-1
 424 313 l 2,15,16
 424 358 424 358 412 387.5 c 128,-1,17
 400 417 400 417 375 430.5 c 128,-1,18
 350 444 350 444 313 442 c 0,19,20
 283 442 283 442 258 432.5 c 128,-1,21
 233 423 233 423 214.5 406 c 128,-1,22
 196 389 196 389 185.5 366.5 c 128,-1,23
 175 344 175 344 175 318 c 2,24,-1
 175 0 l 1,25,-1
 124 0 l 2,26,27
 111 0 111 0 98 0 c 128,-1,28
 85 0 85 0 72 0 c 1,0,-1
EndSplineSet
Validated: 37
EndChar

StartChar: o
Encoding: 111 111 41
Width: 615
GlyphClass: 2
Flags: W
AnchorPoint: "Anchor-4" 461 0 basechar 0
AnchorPoint: "Anchor-3" 595 525 basechar 0
AnchorPoint: "Anchor-2" 308 263 basechar 0
AnchorPoint: "Anchor-1" 308 0 basechar 0
AnchorPoint: "Anchor-0" 308 525 basechar 0
LayerCount: 2
Fore
SplineSet
308 -10 m 0,0,1
 231 -10 231 -10 170.5 25.5 c 128,-1,2
 110 61 110 61 75 122.5 c 128,-1,3
 40 184 40 184 40 263 c 256,4,5
 40 342 40 342 75 403.5 c 128,-1,6
 110 465 110 465 170.5 500.5 c 128,-1,7
 231 536 231 536 308 536 c 0,8,9
 384 536 384 536 444.5 500.5 c 128,-1,10
 505 465 505 465 540 403.5 c 128,-1,11
 575 342 575 342 575 263 c 256,12,13
 575 184 575 184 540 122.5 c 128,-1,14
 505 61 505 61 444.5 25.5 c 128,-1,15
 384 -10 384 -10 308 -10 c 0,0,1
308 84 m 256,16,17
 355 84 355 84 392 107.5 c 128,-1,18
 429 131 429 131 450 171.5 c 128,-1,19
 471 212 471 212 470 263 c 0,20,21
 471 315 471 315 450 355.5 c 128,-1,22
 429 396 429 396 392 419 c 128,-1,23
 355 442 355 442 308 442 c 256,24,25
 261 442 261 442 223.5 418.5 c 128,-1,26
 186 395 186 395 165 354.5 c 128,-1,27
 144 314 144 314 145 263 c 0,28,29
 144 212 144 212 165 171.5 c 128,-1,30
 186 131 186 131 223.5 107.5 c 128,-1,31
 261 84 261 84 308 84 c 256,16,17
EndSplineSet
Validated: 33
Substitution2: "Single Substitution lookup 34 subtable" ordmasculine
Substitution2: "'aalt' Access All Alternates lookup 0 subtable" ordmasculine
EndChar

StartChar: p
Encoding: 112 112 42
Width: 631
GlyphClass: 2
Flags: W
AnchorPoint: "Anchor-1" 316 0 basechar 0
AnchorPoint: "Anchor-0" 316 525 basechar 0
LayerCount: 2
Fore
SplineSet
72 -220 m 1,0,-1
 72 525 l 1,1,-1
 176 525 l 1,2,-1
 176 405 l 1,3,-1
 160 414 l 1,4,5
 166 444 166 444 194 471.5 c 128,-1,6
 222 499 222 499 262.5 516.5 c 128,-1,7
 303 534 303 534 346 534 c 0,8,9
 417 534 417 534 472 499 c 128,-1,10
 527 464 527 464 559 403 c 128,-1,11
 591 342 591 342 591 263 c 0,12,13
 591 185 591 185 559.5 123.5 c 128,-1,14
 528 62 528 62 473 26.5 c 128,-1,15
 418 -9 418 -9 349 -9 c 0,16,17
 303 -9 303 -9 260 9.5 c 128,-1,18
 217 28 217 28 187 57 c 128,-1,19
 157 86 157 86 150 117 c 1,20,-1
 176 131 l 1,21,-1
 176 -220 l 1,22,-1
 72 -220 l 1,0,-1
332 86 m 0,23,24
 378 86 378 86 414 109 c 128,-1,25
 450 132 450 132 471 172 c 128,-1,26
 492 212 492 212 492 263 c 256,27,28
 492 314 492 314 471.5 353.5 c 128,-1,29
 451 393 451 393 415 416 c 128,-1,30
 379 439 379 439 332 439 c 256,31,32
 285 439 285 439 249 416.5 c 128,-1,33
 213 394 213 394 192 354 c 128,-1,34
 171 314 171 314 171 263 c 256,35,36
 171 212 171 212 192 172 c 128,-1,37
 213 132 213 132 249 109 c 128,-1,38
 285 86 285 86 332 86 c 0,23,24
EndSplineSet
Validated: 5
EndChar

StartChar: q
Encoding: 113 113 43
Width: 630
GlyphClass: 2
Flags: W
AnchorPoint: "Anchor-1" 315 0 basechar 0
AnchorPoint: "Anchor-0" 315 525 basechar 0
LayerCount: 2
Fore
SplineSet
455 -220 m 1,0,-1
 455 125 l 1,1,-1
 475 125 l 1,2,3
 475 101 475 101 459 77.5 c 128,-1,4
 443 54 443 54 416 34 c 128,-1,5
 389 14 389 14 356 2 c 128,-1,6
 323 -10 323 -10 288 -10 c 0,7,8
 217 -10 217 -10 161 25.5 c 128,-1,9
 105 61 105 61 72.5 122.5 c 128,-1,10
 40 184 40 184 40 263 c 256,11,12
 40 342 40 342 72 403.5 c 128,-1,13
 104 465 104 465 159.5 500.5 c 128,-1,14
 215 536 215 536 285 536 c 0,15,16
 324 536 324 536 359.5 523 c 128,-1,17
 395 510 395 510 423.5 489 c 128,-1,18
 452 468 452 468 468.5 442.5 c 128,-1,19
 485 417 485 417 485 391 c 1,20,-1
 455 389 l 1,21,-1
 455 526 l 1,22,-1
 558 526 l 1,23,-1
 558 -220 l 1,24,-1
 455 -220 l 1,0,-1
299 85 m 256,25,26
 346 85 346 85 382 108 c 128,-1,27
 418 131 418 131 438.5 171 c 128,-1,28
 459 211 459 211 459 263 c 256,29,30
 459 315 459 315 438.5 355.5 c 128,-1,31
 418 396 418 396 382 419 c 128,-1,32
 346 442 346 442 299 442 c 256,33,34
 252 442 252 442 216 418.5 c 128,-1,35
 180 395 180 395 159.5 354.5 c 128,-1,36
 139 314 139 314 139 263 c 256,37,38
 139 212 139 212 159.5 171.5 c 128,-1,39
 180 131 180 131 216 108 c 128,-1,40
 252 85 252 85 299 85 c 256,25,26
EndSplineSet
Validated: 5
EndChar

StartChar: r
Encoding: 114 114 44
Width: 403
GlyphClass: 2
Flags: W
AnchorPoint: "Anchor-1" 124 0 basechar 0
AnchorPoint: "Anchor-0" 242 525 basechar 0
LayerCount: 2
Fore
SplineSet
72 0 m 1,0,-1
 72 525 l 1,1,-1
 176 525 l 1,2,-1
 176 360 l 1,3,-1
 166 400 l 1,4,5
 177 438 177 438 203.5 469 c 128,-1,6
 230 500 230 500 264.5 518 c 128,-1,7
 299 536 299 536 336 536 c 0,8,9
 353 536 353 536 368.5 533 c 128,-1,10
 384 530 384 530 393 526 c 1,11,-1
 366 414 l 1,12,13
 354 419 354 419 339.5 422.5 c 128,-1,14
 325 426 325 426 311 426 c 0,15,16
 284 426 284 426 259.5 415.5 c 128,-1,17
 235 405 235 405 216.5 386.5 c 128,-1,18
 198 368 198 368 187 343.5 c 128,-1,19
 176 319 176 319 176 290 c 2,20,-1
 176 0 l 1,21,-1
 72 0 l 1,0,-1
EndSplineSet
Validated: 5
EndChar

StartChar: s
Encoding: 115 115 45
Width: 479
GlyphClass: 2
Flags: W
AnchorPoint: "Anchor-1" 249 0 basechar 0
AnchorPoint: "Anchor-0" 240 525 basechar 0
LayerCount: 2
Fore
SplineSet
247 -10 m 0,0,1
 181 -10 181 -10 128 13 c 128,-1,2
 75 36 75 36 40 81 c 1,3,-1
 110 141 l 1,4,5
 140 106 140 106 175.5 90.5 c 128,-1,6
 211 75 211 75 256 75 c 0,7,8
 274 75 274 75 289.5 79.5 c 128,-1,9
 305 84 305 84 316.5 93 c 128,-1,10
 328 102 328 102 334 114.5 c 128,-1,11
 340 127 340 127 340 142 c 0,12,13
 340 168 340 168 321 184 c 0,14,15
 311 191 311 191 289.5 199.5 c 128,-1,16
 268 208 268 208 234 217 c 0,17,18
 176 232 176 232 139 251 c 128,-1,19
 102 270 102 270 82 294 c 0,20,21
 67 313 67 313 60 335.5 c 128,-1,22
 53 358 53 358 53 385 c 0,23,24
 53 429 53 429 78 463 c 128,-1,25
 103 497 103 497 145.5 516.5 c 128,-1,26
 188 536 188 536 241 536 c 0,27,28
 278 536 278 536 314.5 526 c 128,-1,29
 351 516 351 516 382 497 c 128,-1,30
 413 478 413 478 434 452 c 1,31,-1
 375 387 l 1,32,33
 356 406 356 406 333.5 420.5 c 128,-1,34
 311 435 311 435 288 443 c 128,-1,35
 265 451 265 451 246 451 c 0,36,37
 225 451 225 451 208 447 c 128,-1,38
 191 443 191 443 179.5 435 c 128,-1,39
 168 427 168 427 162 415 c 128,-1,40
 156 403 156 403 156 388 c 0,41,42
 157 375 157 375 162.5 363.5 c 128,-1,43
 168 352 168 352 178 344 c 0,44,45
 189 336 189 336 211 327 c 128,-1,46
 233 318 233 318 267 310 c 0,47,48
 317 297 317 297 349.5 281.5 c 128,-1,49
 382 266 382 266 401 246 c 0,50,51
 421 227 421 227 429 202 c 128,-1,52
 437 177 437 177 437 146 c 0,53,54
 437 101 437 101 411.5 65.5 c 128,-1,55
 386 30 386 30 343 10 c 128,-1,56
 300 -10 300 -10 247 -10 c 0,0,1
EndSplineSet
Validated: 1
EndChar

StartChar: t
Encoding: 116 116 46
Width: 384
GlyphClass: 2
Flags: W
AnchorPoint: "Anchor-3" 269 787 basechar 0
AnchorPoint: "Anchor-2" 192 263 basechar 0
AnchorPoint: "Anchor-1" 192 0 basechar 0
AnchorPoint: "Anchor-0" 192 612 basechar 0
LayerCount: 2
Fore
SplineSet
137 0 m 1,0,-1
 137 659 l 1,1,-1
 240 659 l 1,2,-1
 240 0 l 1,3,-1
 137 0 l 1,0,-1
28 425 m 1,4,-1
 28 525 l 1,5,-1
 362 525 l 1,6,-1
 362 425 l 1,7,-1
 28 425 l 1,4,-1
EndSplineSet
Validated: 5
EndChar

StartChar: u
Encoding: 117 117 47
Width: 605
GlyphClass: 2
Flags: W
AnchorPoint: "Anchor-4" 533 0 basechar 0
AnchorPoint: "Anchor-3" 585 525 basechar 0
AnchorPoint: "Anchor-1" 303 0 basechar 0
AnchorPoint: "Anchor-0" 303 525 basechar 0
LayerCount: 2
Fore
SplineSet
256 -10 m 0,0,1
 200 -10 200 -10 158.5 16 c 128,-1,2
 117 42 117 42 94.5 89 c 128,-1,3
 72 136 72 136 72 201 c 2,4,-1
 72 525 l 1,5,-1
 175 525 l 1,6,-1
 175 229 l 2,7,8
 175 160 175 160 207.5 120 c 128,-1,9
 240 80 240 80 298 80 c 0,10,11
 327 80 327 80 351 89.5 c 128,-1,12
 375 99 375 99 392.5 116 c 128,-1,13
 410 133 410 133 420 157 c 128,-1,14
 430 181 430 181 430 209 c 2,15,-1
 430 525 l 1,16,-1
 533 525 l 1,17,-1
 533 0 l 1,18,-1
 430 0 l 1,19,-1
 430 110 l 1,20,-1
 448 122 l 1,21,22
 436 85 436 85 407.5 55 c 128,-1,23
 379 25 379 25 340 7.5 c 128,-1,24
 301 -10 301 -10 256 -10 c 0,0,1
EndSplineSet
Validated: 5
EndChar

StartChar: v
Encoding: 118 118 48
Width: 573
GlyphClass: 2
Flags: W
AnchorPoint: "Anchor-1" 287 0 basechar 0
AnchorPoint: "Anchor-0" 287 525 basechar 0
LayerCount: 2
Fore
SplineSet
244 0 m 1,0,-1
 22 525 l 1,1,-1
 133 525 l 1,2,-1
 293 132 l 1,3,-1
 274 123 l 1,4,-1
 445 525 l 1,5,-1
 551 525 l 1,6,-1
 318 0 l 1,7,-1
 244 0 l 1,0,-1
EndSplineSet
Validated: 5
EndChar

StartChar: w
Encoding: 119 119 49
Width: 800
GlyphClass: 2
Flags: W
AnchorPoint: "Anchor-1" 400 0 basechar 0
AnchorPoint: "Anchor-0" 400 525 basechar 0
LayerCount: 2
Fore
SplineSet
201 0 m 1,0,-1
 22 525 l 1,1,-1
 126 526 l 1,2,-1
 254 133 l 1,3,-1
 231 135 l 1,4,-1
 370 442 l 1,5,-1
 432 442 l 1,6,-1
 572 134 l 1,7,-1
 545 132 l 1,8,-1
 674 525 l 1,9,-1
 778 525 l 1,10,-1
 601 0 l 1,11,-1
 530 0 l 1,12,-1
 384 334 l 1,13,-1
 407 331 l 1,14,-1
 271 0 l 1,15,-1
 201 0 l 1,0,-1
EndSplineSet
Validated: 5
EndChar

StartChar: x
Encoding: 120 120 50
Width: 562
GlyphClass: 2
Flags: W
AnchorPoint: "Anchor-1" 281 0 basechar 0
AnchorPoint: "Anchor-0" 281 525 basechar 0
LayerCount: 2
Fore
SplineSet
421 0 m 1,0,-1
 251 221 l 1,1,-1
 236 240 l 1,2,-1
 15 525 l 1,3,-1
 145 525 l 1,4,-1
 312 307 l 1,5,-1
 329 285 l 1,6,-1
 547 0 l 1,7,-1
 421 0 l 1,0,-1
16 0 m 1,8,-1
 223 270 l 1,9,-1
 284 197 l 1,10,-1
 138 0 l 1,11,-1
 16 0 l 1,8,-1
335 254 m 1,12,-1
 278 326 l 1,13,-1
 407 525 l 1,14,-1
 529 525 l 1,15,-1
 335 254 l 1,12,-1
EndSplineSet
Validated: 5
EndChar

StartChar: y
Encoding: 121 121 51
Width: 581
GlyphClass: 2
Flags: W
AnchorPoint: "Anchor-1" 472 0 basechar 0
AnchorPoint: "Anchor-0" 291 525 basechar 0
LayerCount: 2
Fore
SplineSet
160 -230 m 1,0,-1
 266 15 l 1,1,-1
 267 -67 l 1,2,-1
 5 525 l 1,3,-1
 125 525 l 1,4,-1
 289 139 l 2,5,6
 294 129 294 129 301 108.5 c 128,-1,7
 308 88 308 88 313 68 c 1,8,-1
 287 62 l 1,9,10
 295 83 295 83 302.5 104 c 128,-1,11
 310 125 310 125 317 146 c 2,12,-1
 454 525 l 1,13,-1
 576 525 l 1,14,-1
 360 0 l 1,15,-1
 271 -230 l 1,16,-1
 160 -230 l 1,0,-1
EndSplineSet
Validated: 5
EndChar

StartChar: z
Encoding: 122 122 52
Width: 484
GlyphClass: 2
Flags: W
AnchorPoint: "Anchor-2" 242 263 basechar 0
AnchorPoint: "Anchor-1" 242 0 basechar 0
AnchorPoint: "Anchor-0" 242 525 basechar 0
LayerCount: 2
Fore
SplineSet
50 0 m 1,0,-1
 50 86 l 1,1,-1
 321 448 l 1,2,-1
 321 436 l 1,3,-1
 50 436 l 1,4,-1
 50 525 l 1,5,-1
 433 525 l 1,6,-1
 433 441 l 1,7,-1
 166 84 l 1,8,-1
 162 89 l 1,9,-1
 439 89 l 1,10,-1
 439 0 l 1,11,-1
 50 0 l 1,0,-1
EndSplineSet
Validated: 5
EndChar

StartChar: uni0302
Encoding: 770 770 54
Width: 0
GlyphClass: 4
Flags: W
AnchorPoint: "Anchor-8" 250 710 basemark 0
AnchorPoint: "Anchor-8" 250 525 mark 0
AnchorPoint: "Anchor-5" 250 525 mark 0
AnchorPoint: "Anchor-0" 250 525 mark 0
LayerCount: 2
Fore
SplineSet
130 607 m 1,0,-1
 92 640 l 1,1,-1
 207 753 l 1,2,-1
 293 753 l 1,3,-1
 408 640 l 1,4,-1
 370 607 l 1,5,-1
 235 680 l 1,6,-1
 265 680 l 1,7,-1
 130 607 l 1,0,-1
EndSplineSet
Validated: 5
Substitution2: "'case' Case-Sensitive Forms lookup 36 subtable" uni0302.case
Substitution2: "Single Substitution lookup 7 subtable" uni0302.case
Substitution2: "Single Substitution lookup 6 subtable" uni0302.case
Substitution2: "Single Substitution lookup 4 subtable" uni0302.case
Substitution2: "Single Substitution lookup 3 subtable" uni0302.case
Substitution2: "'aalt' Access All Alternates lookup 0 subtable" uni0302.case
EndChar

StartChar: tildecomb
Encoding: 771 771 55
Width: 0
GlyphClass: 4
Flags: W
AnchorPoint: "Anchor-8" 251 710 basemark 0
AnchorPoint: "Anchor-8" 251 525 mark 0
AnchorPoint: "Anchor-5" 251 525 mark 0
AnchorPoint: "Anchor-0" 251 525 mark 0
LayerCount: 2
Fore
SplineSet
302 615 m 0,0,1
 282 615 282 615 268.5 623 c 128,-1,2
 255 631 255 631 240 643 c 0,3,4
 221 660 221 660 211.5 666.5 c 128,-1,5
 202 673 202 673 194 673 c 0,6,7
 181 673 181 673 171 658.5 c 128,-1,8
 161 644 161 644 157 615 c 1,9,-1
 89 625 l 1,10,11
 91 674 91 674 120.5 710 c 128,-1,12
 150 746 150 746 199 746 c 0,13,14
 219 746 219 746 232.5 738 c 128,-1,15
 246 730 246 730 261 718 c 0,16,17
 281 702 281 702 290 695 c 128,-1,18
 299 688 299 688 307 688 c 0,19,20
 321 688 321 688 330.5 703 c 128,-1,21
 340 718 340 718 344 746 c 1,22,-1
 412 736 l 1,23,24
 411 704 411 704 397 676 c 128,-1,25
 383 648 383 648 359 631.5 c 128,-1,26
 335 615 335 615 302 615 c 0,0,1
EndSplineSet
Validated: 1
Substitution2: "'case' Case-Sensitive Forms lookup 36 subtable" tildecomb.case
Substitution2: "Single Substitution lookup 7 subtable" tildecomb.case
Substitution2: "Single Substitution lookup 6 subtable" tildecomb.case
Substitution2: "Single Substitution lookup 4 subtable" tildecomb.case
Substitution2: "Single Substitution lookup 3 subtable" tildecomb.case
Substitution2: "'aalt' Access All Alternates lookup 0 subtable" tildecomb.case
EndChar

StartChar: uni03020303
Encoding: 65764 -1 57
Width: 0
GlyphClass: 4
Flags: W
AnchorPoint: "Anchor-8" 251 790 basemark 0
AnchorPoint: "Anchor-8" 251 525 mark 0
AnchorPoint: "Anchor-5" 251 525 mark 0
AnchorPoint: "Anchor-0" 251 525 mark 0
LayerCount: 2
Fore
SplineSet
130 607 m 1,0,-1
 92 640 l 1,1,-1
 207 753 l 1,2,-1
 293 753 l 1,3,-1
 408 640 l 1,4,-1
 370 607 l 1,5,-1
 235 680 l 1,6,-1
 265 680 l 1,7,-1
 130 607 l 1,0,-1
326 807 m 0,8,9
 297 807 297 807 278 816.5 c 128,-1,10
 259 826 259 826 241 833 c 0,11,12
 229 838 229 838 218 843 c 128,-1,13
 207 848 207 848 194 848 c 256,14,15
 181 848 181 848 171 838 c 128,-1,16
 161 828 161 828 157 811 c 1,17,-1
 89 821 l 1,18,19
 91 863 91 863 119 894.5 c 128,-1,20
 147 926 147 926 184 926 c 0,21,22
 207 926 207 926 225 916.5 c 128,-1,23
 243 907 243 907 261 899 c 0,24,25
 274 893 274 893 285.5 888.5 c 128,-1,26
 297 884 297 884 307 884 c 0,27,28
 321 884 321 884 330.5 893.5 c 128,-1,29
 340 903 340 903 344 922 c 1,30,-1
 412 912 l 1,31,32
 411 884 411 884 400.5 860 c 128,-1,33
 390 836 390 836 371.5 821.5 c 128,-1,34
 353 807 353 807 326 807 c 0,8,9
EndSplineSet
Validated: 5
Substitution2: "'case' Case-Sensitive Forms lookup 36 subtable" uni03020303.case
Ligature2: "'ccmp' Glyph Composition/Decomposition lookup 11 subtable" uni0302 tildecomb
Substitution2: "Single Substitution lookup 7 subtable" uni03020303.case
Substitution2: "Single Substitution lookup 6 subtable" uni03020303.case
Substitution2: "Single Substitution lookup 4 subtable" uni03020303.case
Substitution2: "Single Substitution lookup 3 subtable" uni03020303.case
Substitution2: "'aalt' Access All Alternates lookup 0 subtable" uni03020303.case
EndChar

StartChar: tildecomb.case
Encoding: 65819 -1 58
Width: 0
GlyphClass: 4
Flags: W
AnchorPoint: "Anchor-8" 251 850 basemark 0
AnchorPoint: "Anchor-8" 251 700 mark 0
AnchorPoint: "Anchor-5" 251 700 mark 0
AnchorPoint: "Anchor-0" 251 700 mark 0
LayerCount: 2
Fore
SplineSet
325 768 m 0,0,1
 302 768 302 768 278.5 775.5 c 128,-1,2
 255 783 255 783 234 791 c 0,3,4
 217 798 217 798 205 802 c 128,-1,5
 193 806 193 806 183 806 c 0,6,7
 170 806 170 806 161.5 796.5 c 128,-1,8
 153 787 153 787 153 768 c 1,9,-1
 76 768 l 1,10,11
 76 822 76 822 111 851.5 c 128,-1,12
 146 881 146 881 190 881 c 0,13,14
 211 881 211 881 231 874 c 128,-1,15
 251 867 251 867 270 859 c 0,16,17
 284 853 284 853 297.5 849 c 128,-1,18
 311 845 311 845 320 845 c 0,19,20
 334 845 334 845 342 855 c 128,-1,21
 350 865 350 865 349 881 c 1,22,-1
 425 881 l 1,23,24
 425 852 425 852 413 826 c 128,-1,25
 401 800 401 800 378.5 784 c 128,-1,26
 356 768 356 768 325 768 c 0,0,1
EndSplineSet
Validated: 1
EndChar

StartChar: hyphen
Encoding: 45 45 59
Width: 394
Flags: W
LayerCount: 2
Fore
SplineSet
53 235 m 1,0,-1
 53 337 l 1,1,-1
 341 337 l 1,2,-1
 341 235 l 1,3,-1
 53 235 l 1,0,-1
EndSplineSet
EndChar

StartChar: period
Encoding: 46 46 60
Width: 228
Flags: W
LayerCount: 2
Fore
SplineSet
114 -11 m 0,0,1
 81 -11 81 -11 63 8.5 c 128,-1,2
 45 28 45 28 45 64 c 0,3,4
 45 97 45 97 64 118 c 128,-1,5
 83 139 83 139 114 139 c 0,6,7
 147 139 147 139 165 119.5 c 128,-1,8
 183 100 183 100 183 64 c 0,9,10
 183 31 183 31 164 10 c 128,-1,11
 145 -11 145 -11 114 -11 c 0,0,1
EndSplineSet
EndChar
